<?xml version="1.0" encoding="UTF-8"?>
<svg width="1423px" height="155px" viewBox="0 0 1423 155" version="1.1" xmlns="http://www.w3.org/2000/svg" xmlns:xlink="http://www.w3.org/1999/xlink">
    <!-- Generator: Sketch 59.1 (86144) - https://sketch.com -->
    <title>Path 5</title>
    <desc>Created with Sketch.</desc>
    <g id="Landing-Page" stroke="none" stroke-width="1" fill="none" fill-rule="evenodd" fill-opacity="0.2">
        <g transform="translate(-17.000000, -718.000000)" fill="#FBA42D" id="Home">
            <g transform="translate(-1.000000, -30.000000)">
                <g id="mimi-thian-737634-unsplash">
                    <path d="M3.41060513e-13,920.692018 C117,804.358684 238.666667,769.192018 365,815.192018 C554.5,884.192018 680.5,765.692018 903,750.192018 C1125.5,734.692018 1290,866.692018 1565.5,866.692018 C1841,866.692018 1923.5,1387.69202 1675.5,1365.19202 C1427.5,1342.69202 1303.5,1466.69202 1146,1416.69202 C988.5,1366.69202 864,1208.19202 738,1271.19202 C612,1334.19202 493.295103,1400.04621 315,1416.69202 C136.704897,1433.33783 156,1323.19202 78,1365.19202 C26,1393.19202 3.41060513e-13,1245.02535 3.41060513e-13,920.692018 Z" id="Path-5"></path>
                </g>
            </g>
        </g>
    </g>
</svg>