<?xml version="1.0" encoding="UTF-8"?>
<svg width="1440px" height="190px" viewBox="0 0 1440 190" version="1.1" xmlns="http://www.w3.org/2000/svg" xmlns:xlink="http://www.w3.org/1999/xlink">
    <!-- Generator: Sketch 59.1 (86144) - https://sketch.com -->
    <title>Path 5</title>
    <desc>Created with Sketch.</desc>
    <g id="Landing-Page" stroke="none" stroke-width="1" fill="none" fill-rule="evenodd" fill-opacity="0.2">
        <g transform="translate(0.000000, -683.000000)" fill="#FBA42D" id="Home">
            <g transform="translate(-1.000000, -30.000000)">
                <g id="mimi-thian-737634-unsplash">
                    <path d="M-151,903.580279 C-87.5513106,740.654771 8.46996799,682.192018 137.063836,728.192018 C329.954637,797.192018 528.9528,890.192018 784.952993,868.192018 C1040.95319,846.192018 1108.6431,836.192018 1387.03695,806.192018 C1665.43079,776.192018 1799.79273,1535.19202 1547.35516,1512.69202 C1471.72334,1505.95088 1409.06605,1490.90659 1354.08623,1471.79493 C1225.55903,1427.11727 1138.98858,1360.21171 1026.70268,1325.19202 C866.384466,1275.19202 738.129896,1302.19202 609.875326,1365.19202 C481.620756,1428.19202 351.121836,1382.93447 169.636425,1399.58028 C-11.848986,1416.22609 7.79137238,1306.08028 -71.6043138,1348.08028 C-124.534771,1376.08028 -151,1227.91361 -151,903.580279 Z" id="Path-5"></path>
                </g>
            </g>
        </g>
    </g>
</svg>