<?xml version="1.0" encoding="UTF-8"?>
<svg width="1440px" height="151px" viewBox="0 0 1440 151" version="1.1" xmlns="http://www.w3.org/2000/svg" xmlns:xlink="http://www.w3.org/1999/xlink">
    <!-- Generator: Sketch 59.1 (86144) - https://sketch.com -->
    <title>Group 6</title>
    <desc>Created with Sketch.</desc>
    <defs>
        <linearGradient x1="-21.1643332%" y1="49.1091316%" x2="109.245352%" y2="50.3605306%" id="linearGradient-1">
            <stop stop-color="#FECE08" offset="0%"></stop>
            <stop stop-color="#FCB022" offset="100%"></stop>
        </linearGradient>
        <linearGradient x1="126.12542%" y1="49.5997261%" x2="0%" y2="50.2324282%" id="linearGradient-2">
            <stop stop-color="#D66C10" offset="0%"></stop>
            <stop stop-color="#FCAB26" offset="100%"></stop>
        </linearGradient>
    </defs>
    <g id="Landing-Page" stroke="none" stroke-width="1" fill="none" fill-rule="evenodd">
        <g transform="translate(0.000000, -3802.000000)" id="footer">
            <g transform="translate(-92.000000, 3802.000000)">
                <g id="footer_white">
                    <g id="Group-6" transform="translate(0.126574, 0.674713)">
                        <path d="M43.3734263,57.8252869 C108.338189,52.7214425 216.873426,-15.6747131 340.373426,3.32528692 C437.373426,15.8252869 634.073069,120.517744 869.373426,120.325287 C1104.67378,120.13283 1417.37343,-89.6747131 1588.37343,67.3252869 C1583.15414,76.1447131 1343.48748,95.5427544 869.373426,125.519411 L280.434401,102.041032 L229.434401,102.041032 C62.0839097,75.9664315 0.0635846835,61.2278498 43.3734263,57.8252869 Z" id="Path-9" fill="url(#linearGradient-1)"></path>
                        <path d="M18.8734263,63.8252869 C83.8381886,58.7214425 192.373426,10.8252869 308.873426,19.3252869 C430.373426,31.8252869 634.073069,120.517744 869.373426,120.325287 C1104.67378,120.13283 1348.76489,-70.6996591 1534.59381,76.5712016 C1529.37453,85.3906278 1529.46773,104.808656 1534.87343,134.825287 L869.373426,134.825287 L163.560975,124.295505 L112.560975,124.295505 C6.79276764,87.3845893 -24.4364153,67.2278498 18.8734263,63.8252869 Z" id="Path-9" fill="url(#linearGradient-2)"></path>
                        <path d="M25.3734263,78.3252869 C90.3381886,73.2214425 163.373426,30.8252869 293.373426,39.8252869 C478.373426,54.3252869 610.373426,124.325287 859.373426,124.325287 C1099.87343,128.325287 1356.37343,-19.1747131 1545.37343,106.325287 C1671.37343,189.991954 1666.64021,204.261135 1531.17378,149.13283 L859.373426,149.13283 L90.5324076,149.13283 L90.5324076,138.332188" id="Path-9" fill="#F4F4F4"></path>
                    </g>
                </g>
            </g>
        </g>
    </g>
</svg>