<?xml version="1.0" encoding="UTF-8"?>
<svg width="73px" height="73px" viewBox="0 0 73 73" version="1.1" xmlns="http://www.w3.org/2000/svg" xmlns:xlink="http://www.w3.org/1999/xlink">
    <!-- Generator: Sketch 59.1 (86144) - https://sketch.com -->
    <title>javascript-seeklogo.com</title>
    <desc>Created with Sketch.</desc>
    <g id="Landing-Page" stroke="none" stroke-width="1" fill="none" fill-rule="evenodd">
        <g transform="translate(-120.000000, -1652.000000)" id="Our-Process-Academy">
            <g transform="translate(119.000000, 1550.000000)">
                <g id="Level-1" transform="translate(1.000000, 104.000000)">
                    <g id="javascript-seeklogo.com" transform="translate(2.000000, 0.000000)">
                        <circle id="Oval" stroke="#FBA42D" stroke-width="4" fill="#5B5B5B" cx="34.5" cy="34.5" r="34.5"></circle>
                        <path d="M18.6201248,52.5607412 L15,13 L54,13.0150995 L50.4102964,52.5305422 L34.4695788,57 L18.6201248,52.5607412 Z M47.474649,50.40151 L50.5015601,16.5181881 L34.5304212,16.5181881 L34.6521061,53.889499 L47.474649,50.40151 L47.474649,50.40151 Z M33.0397816,21.48593 L29.1610764,21.48593 L29.1154446,41.7645848 L21.5861934,39.7261496 L21.6014041,44.3617021 L33.0397816,47.4269046 L33.0397816,21.48593 Z" id="path5113" fill="#D4B830" fill-rule="nonzero"></path>
                        <path d="M31.722372,46.7253521 C31.1886792,46.57277 28.5525606,45.9014085 25.8679245,45.2147887 L21,43.9788732 L21,41.6748826 C21,39.4166667 21,39.370892 21.2425876,39.4471831 C21.3719677,39.4929577 23.1509434,39.9507042 25.1886792,40.4847418 L28.8921833,41.4460094 L28.9245283,31.2230047 L28.9568733,21 L33,21 L33,34 C33,44.3298122 32.967655,47 32.8544474,47 C32.7735849,46.9847418 32.2560647,46.8626761 31.722372,46.7253521 L31.722372,46.7253521 Z" id="path5159" fill-opacity="0" fill="#EBEBEB" fill-rule="nonzero" opacity="0.986"></path>
                        <path d="M21.0159363,44.9260338 L21,40.2772277 C21,40.2772277 26.0358566,41.6249272 28.8884462,42.321491 L28.936255,22 L33,22 L33,48 L21.0159363,44.9260338 Z" id="path5157" fill-opacity="0.9216" fill="#EBEBEB" fill-rule="nonzero" opacity="0.986"></path>
                        <path d="M34,16 L50,16 L46.967619,50.4533333 L34,54 L34,16 Z M46.1447619,44.680404 L47.1961905,31.7987879 L39.4247619,32.6739394 L39.4247619,25.7955556 L47.7142857,25.7648485 L48.0495238,21.0666667 L35.5390476,21.1280808 L35.7066667,38.2319192 L43.2647619,36.9268687 L43.1580952,40.7345455 L35.5390476,42.7765657 L35.6152381,47.4440404 L46.1447619,44.680404 Z" id="path5117" fill="#FDD83C" fill-rule="nonzero"></path>
                    </g>
                </g>
            </g>
        </g>
    </g>
</svg>