<?xml version="1.0" encoding="UTF-8"?>
<svg width="73px" height="73px" viewBox="0 0 73 73" version="1.1" xmlns="http://www.w3.org/2000/svg" xmlns:xlink="http://www.w3.org/1999/xlink">
    <!-- Generator: Sketch 59.1 (86144) - https://sketch.com -->
    <title>apple-logo</title>
    <desc>Created with Sketch.</desc>
    <g id="Landing-Page" stroke="none" stroke-width="1" fill="none" fill-rule="evenodd">
        <g transform="translate(-120.000000, -2389.000000)" id="Our-Process-Academy">
            <g transform="translate(119.000000, 1550.000000)">
                <g id="Level-4" transform="translate(1.000000, 841.000000)">
                    <g id="apple-logo" transform="translate(2.000000, 0.000000)">
                        <circle id="Oval" stroke="#FBA42D" stroke-width="4" fill="#5B5B5B" cx="34.5" cy="34.5" r="34.5"></circle>
                        <g id="Group" transform="translate(25.000000, 12.000000)" fill="#F7F7F7" fill-rule="nonzero">
                            <path d="M28.3576471,26.1773399 C27.3035294,24.591133 26.7764706,22.8078818 26.7764706,20.817734 C26.7764706,19.0049261 27.2752941,17.3497537 28.2635294,15.8423645 C28.8,15.0246305 29.6752941,14.0788177 30.88,13.0049261 C30.08,11.9802956 29.2894118,11.182266 28.4894118,10.6009852 C27.0494118,9.55665025 25.4211765,9.04433498 23.6047059,9.04433498 C22.5223529,9.04433498 21.1952941,9.32019704 19.6329412,9.86206897 C18.1364706,10.4039409 17.0352941,10.679803 16.3482353,10.679803 C15.8305882,10.679803 14.7764706,10.4433498 13.1858824,9.96059113 C11.5764706,9.47783251 10.2305882,9.24137931 9.12,9.24137931 C6.48470588,9.24137931 4.32,10.3940887 2.60705882,12.6995074 C0.875294118,15.0344828 0.0188235294,18.0295567 0.0188235294,21.6847291 C0.0188235294,25.5566502 1.13882353,29.5862069 3.38823529,33.7635468 C5.66588235,37.91133 7.97176471,39.9802956 10.2964706,39.9802956 C11.0776471,39.9802956 12.0847059,39.7044335 13.3270588,39.1625616 C14.5694118,38.6305419 15.6517647,38.3743842 16.5835294,38.3743842 C17.5811765,38.3743842 18.7294118,38.6305419 20.0470588,39.1428571 C21.44,39.6551724 22.5129412,39.91133 23.2564706,39.91133 C25.2141176,39.91133 27.1811765,38.3448276 29.1576471,35.2019704 C30.4376471,33.2019704 31.3788235,31.2019704 31.9811765,29.2019704 C30.6258824,28.7684729 29.4117647,27.7635468 28.3576471,26.1773399 Z" id="Path"></path>
                            <path d="M20.5552941,7.60591133 C21.5152941,6.60098522 22.2305882,5.48768473 22.6917647,4.2955665 C23.1341176,3.09359606 23.36,2.00985222 23.36,1.02463054 C23.36,0.965517241 23.36,0.876847291 23.3505882,0.78817734 C23.3411765,0.689655172 23.3411765,0.610837438 23.3411765,0.551724138 C23.3223529,0.502463054 23.3035294,0.413793103 23.2847059,0.285714286 C23.2658824,0.157635468 23.2470588,0.0689655172 23.2282353,0.0197044335 C20.5364706,0.679802956 18.6258824,1.86206897 17.4964706,3.57635468 C16.3482353,5.31034483 15.7552941,7.35960591 15.7082353,9.75369458 C16.7341176,9.65517241 17.5247059,9.51724138 18.0988235,9.34975369 C18.9082353,9.05418719 19.7270588,8.4729064 20.5552941,7.60591133 Z" id="Path"></path>
                        </g>
                        <g id="Group" transform="translate(11.000000, 12.000000)" fill="#AAC148" fill-rule="nonzero">
                            <path d="M26.4568966,13.5280193 L6.58103448,13.5280193 C6.13534483,13.5280193 5.78448276,13.9043478 5.78448276,14.3599034 L5.78448276,31.7601449 C5.78448276,32.2256039 6.14482759,32.592029 6.58103448,32.592029 L10.1275862,32.592029 L10.1275862,38.4548309 C10.1275862,39.8115942 11.1801724,40.9207729 12.4887931,40.9207729 L12.4887931,40.9207729 C13.787931,40.9207729 14.85,39.8214976 14.85,38.4548309 L14.85,32.592029 L18.15,32.592029 L18.15,38.4548309 C18.15,39.8115942 19.2025862,40.9207729 20.5112069,40.9207729 L20.5112069,40.9207729 C21.8103448,40.9207729 22.8724138,39.8214976 22.8724138,38.4548309 L22.8724138,32.592029 L26.4568966,32.592029 C26.9025862,32.592029 27.2534483,32.2157005 27.2534483,31.7601449 L27.2534483,14.3599034 C27.2534483,13.9043478 26.9025862,13.5280193 26.4568966,13.5280193 Z" id="Path"></path>
                            <path d="M2.41810345,13.5280193 L2.41810345,13.5280193 C1.11896552,13.5280193 0.0568965517,14.6272947 0.0568965517,15.9939614 L0.0568965517,26.0062802 C0.0568965517,27.3630435 1.10948276,28.4722222 2.41810345,28.4722222 L2.41810345,28.4722222 C3.71724138,28.4722222 4.77931034,27.3729469 4.77931034,26.0062802 L4.77931034,15.984058 C4.77931034,14.6272947 3.71724138,13.5280193 2.41810345,13.5280193 Z" id="Path"></path>
                            <path d="M30.6198276,13.5280193 L30.6198276,13.5280193 C29.3206897,13.5280193 28.2586207,14.6272947 28.2586207,15.9939614 L28.2586207,26.0062802 C28.2586207,27.3630435 29.3112069,28.4722222 30.6198276,28.4722222 L30.6198276,28.4722222 C31.9189655,28.4722222 32.9810345,27.3729469 32.9810345,26.0062802 L32.9810345,15.984058 C32.9810345,14.6272947 31.9284483,13.5280193 30.6198276,13.5280193 Z" id="Path"></path>
                            <path d="M6.74224138,12.3099034 L26.2482759,12.3099034 C26.7603448,12.3099034 27.1396552,11.8246377 27.0353448,11.2997585 C26.3905172,8.0910628 24.4275862,5.37753623 21.7724138,3.82270531 L23.4413793,0.683333333 C23.5551724,0.475362319 23.4793103,0.198067633 23.2801724,0.0891304348 C23.0715517,-0.0297101449 22.8155172,0.0495169082 22.7112069,0.257487923 L21.0327586,3.42657005 C19.6482759,2.74323671 18.112069,2.37681159 16.5,2.37681159 C14.8784483,2.37681159 13.3517241,2.7531401 11.9767241,3.41666667 L10.2982759,0.247584541 C10.1844828,0.0396135266 9.92844828,-0.0396135266 9.72931034,0.0792270531 C9.53017241,0.198067633 9.45431034,0.465458937 9.56810345,0.673429952 L11.237069,3.81280193 C8.58189655,5.37753623 6.61896552,8.08115942 5.97413793,11.2898551 C5.85086207,11.8147343 6.23017241,12.3099034 6.74224138,12.3099034 Z M22.312931,7.62560386 C22.312931,8.15048309 21.9051724,8.5763285 21.4025862,8.5763285 C20.9,8.5763285 20.4922414,8.15048309 20.4922414,7.62560386 C20.4922414,7.10072464 20.9,6.67487923 21.4025862,6.67487923 C21.9146552,6.67487923 22.312931,7.10072464 22.312931,7.62560386 Z M11.5784483,6.67487923 C12.0810345,6.67487923 12.4887931,7.10072464 12.4887931,7.62560386 C12.4887931,8.15048309 12.0810345,8.5763285 11.5784483,8.5763285 C11.0758621,8.5763285 10.6681034,8.15048309 10.6681034,7.62560386 C10.6775862,7.10072464 11.0853448,6.67487923 11.5784483,6.67487923 Z" id="Shape"></path>
                        </g>
                    </g>
                </g>
            </g>
        </g>
    </g>
</svg>