<?xml version="1.0" encoding="UTF-8"?>
<svg width="73px" height="73px" viewBox="0 0 73 73" version="1.1" xmlns="http://www.w3.org/2000/svg" xmlns:xlink="http://www.w3.org/1999/xlink">
    <!-- Generator: Sketch 59.1 (86144) - https://sketch.com -->
    <title>nodejs-seeklogo.com</title>
    <desc>Created with Sketch.</desc>
    <g id="Landing-Page" stroke="none" stroke-width="1" fill="none" fill-rule="evenodd">
        <g transform="translate(-120.000000, -1922.000000)" id="Our-Process-Academy">
            <g transform="translate(119.000000, 1550.000000)">
                <g id="Level-2" transform="translate(1.000000, 374.000000)">
                    <g id="nodejs-seeklogo.com" transform="translate(2.000000, 0.000000)">
                        <circle id="Oval" stroke="#FBA42D" stroke-width="4" fill="#5B5B5B" cx="34.5" cy="34.5" r="34.5"></circle>
                        <path d="M35,57 C34.3788819,57 33.7991717,56.8346346 33.2608694,56.5452456 L27.7536232,53.2792832 C26.9254656,52.824529 27.3395446,52.6591637 27.5879915,52.5764811 C28.706004,52.2044098 28.9130434,52.1217268 30.0724639,51.460266 C30.1966872,51.3775836 30.3623188,51.418925 30.4865425,51.5016074 L34.7101448,54.0234265 C34.8757766,54.1061091 35.0828158,54.1061091 35.2070395,54.0234265 L51.7287784,44.4735876 C51.8944102,44.3909046 51.9772258,44.2255397 51.9772258,44.0188332 L51.9772258,24.9604962 C51.9772258,24.7537894 51.8944102,24.5884244 51.7287784,24.5057419 L35.2070395,14.9972439 C35.0414078,14.9145614 34.8343686,14.9145614 34.7101448,14.9972439 L18.1884055,24.5057419 C18.0227742,24.5884244 17.9399586,24.7951308 17.9399586,24.9604962 L17.9399586,44.0188332 C17.9399586,44.1841983 18.0227742,44.3909046 18.1884055,44.4735876 L22.7018632,47.0780891 C25.1449276,48.3183277 26.6770187,46.8713826 26.6770187,45.4244372 L26.6770187,26.6141477 C26.6770187,26.3661002 26.884058,26.1180523 27.1739129,26.1180523 L29.2857143,26.1180523 C29.5341616,26.1180523 29.7826086,26.3247588 29.7826086,26.6141477 L29.7826086,45.4244372 C29.7826086,48.6903995 28.0020705,50.5920989 24.8964803,50.5920989 C23.9440994,50.5920989 23.1987578,50.5920989 21.0869565,49.5585667 L16.7391304,47.0780891 C15.6625259,46.4579694 15,45.3004133 15,44.0601742 L15,25.0018373 C15,23.7615986 15.6625259,22.6040421 16.7391304,21.9839228 L33.2608694,12.4340834 C34.2960663,11.8553055 35.7039338,11.8553055 36.7391306,12.4340834 L53.2608695,21.9839228 C54.3374741,22.6040421 55,23.7615986 55,25.0018373 L55,44.0601742 C55,45.3004133 54.3374741,46.4579694 53.2608695,47.0780891 L36.7391306,56.6279281 C36.200828,56.875976 35.5797102,57 35,57 L35,57 Z M40.0931678,43.8948093 C32.8467908,43.8948093 31.3561077,40.5875056 31.3561077,37.7762975 C31.3561077,37.5282497 31.563147,37.2802021 31.8530019,37.2802021 L34.0062113,37.2802021 C34.2546583,37.2802021 34.4616975,37.4455671 34.4616975,37.693615 C34.7929605,39.8847037 35.7453417,40.9595773 40.1345755,40.9595773 C43.6128366,40.9595773 45.1035197,40.1740927 45.1035197,38.3137344 C45.1035197,37.2388607 44.6894411,36.4533761 39.2650102,35.9159392 C34.7515528,35.4611849 31.935818,34.4689938 31.935818,30.8723012 C31.935818,27.5236563 34.7515528,25.5392741 39.4720498,25.5392741 C44.7722567,25.5392741 47.3809523,27.3582913 47.7122153,31.3270555 C47.7122153,31.4510793 47.6708073,31.5751034 47.5879917,31.6991272 C47.5051761,31.7818097 47.3809523,31.8644922 47.2567288,31.8644922 L45.1035197,31.8644922 C44.8964805,31.8644922 44.6894411,31.6991272 44.6480331,31.4924207 C44.1511389,29.2186496 42.8674947,28.474506 39.4720498,28.474506 C35.6625258,28.474506 35.2070395,29.7974275 35.2070395,30.7896186 C35.2070395,31.9885162 35.7453417,32.360588 40.8799173,33.0220488 C45.973085,33.6835094 48.3747412,34.6343592 48.3747412,38.1897104 C48.3333333,41.8277445 45.351967,43.8948093 40.0931678,43.8948093 L40.0931678,43.8948093 Z" id="Shape" fill="#539E43" fill-rule="nonzero"></path>
                    </g>
                </g>
            </g>
        </g>
    </g>
</svg>