<?xml version="1.0" encoding="UTF-8"?>
<svg width="73px" height="73px" viewBox="0 0 73 73" version="1.1" xmlns="http://www.w3.org/2000/svg" xmlns:xlink="http://www.w3.org/1999/xlink">
    <!-- Generator: Sketch 59.1 (86144) - https://sketch.com -->
    <title>neural</title>
    <desc>Created with Sketch.</desc>
    <g id="Landing-Page" stroke="none" stroke-width="1" fill="none" fill-rule="evenodd">
        <g transform="translate(-120.000000, -2159.000000)" id="Our-Process-Academy">
            <g transform="translate(119.000000, 1550.000000)">
                <g id="Level-3" transform="translate(1.000000, 611.000000)">
                    <g id="neural" transform="translate(2.000000, 0.000000)">
                        <circle id="Oval" stroke="#FBA42D" stroke-width="4" fill="#5B5B5B" cx="34.5" cy="34.5" r="34.5"></circle>
                        <path d="M21.9801333,38.26 C21.1576333,37.86285 20.2395667,37.6333333 19.2666667,37.6333333 C15.8113833,37.6333333 13,40.4447167 13,43.9 C13,47.3552833 15.8113833,50.1666667 19.2666667,50.1666667 C21.4349333,50.1666667 23.3486167,49.0590333 24.4742667,47.38035 L30.3939167,50.3437 C30.2920833,50.7909833 30.2333333,51.2555 30.2333333,51.7333333 C30.2333333,55.1886167 33.0447167,58 36.5,58 C39.9552833,58 42.7666667,55.1886167 42.7666667,51.7333333 C42.7666667,50.4345667 42.3695167,49.22745 41.6895833,48.2255667 L50.0078,39.5282167 C51.0512,40.30215 52.3374333,40.7666667 53.7333333,40.7666667 C57.1886167,40.7666667 60,37.9552833 60,34.5 C60,31.0447167 57.1886167,28.2333333 53.7333333,28.2333333 C52.2873,28.2333333 50.9587667,28.7299667 49.8965667,29.5556 L41.4444,21.1034333 C42.2700333,20.0412333 42.7666667,18.7127 42.7666667,17.2666667 C42.7666667,13.8113833 39.9552833,11 36.5,11 C33.0447167,11 30.2333333,13.8113833 30.2333333,17.2666667 C30.2333333,17.7429333 30.2913,18.2058833 30.3931333,18.6523833 L24.8377333,20.6765167 C23.7959,18.6547333 21.69265,17.2666667 19.2666667,17.2666667 C15.8113833,17.2666667 13,20.07805 13,23.5333333 C13,26.9886167 15.8113833,29.8 19.2666667,29.8 C20.1581,29.8 21.0048833,29.6104333 21.7733333,29.2728167 L24.6567833,34.1255667 L21.9801333,38.26 Z M19.2666667,48.6 C16.6746167,48.6 14.5666667,46.49205 14.5666667,43.9 C14.5666667,41.30795 16.6746167,39.2 19.2666667,39.2 C21.8587167,39.2 23.9666667,41.30795 23.9666667,43.9 C23.9666667,46.49205 21.8587167,48.6 19.2666667,48.6 Z M25.1722167,45.9766167 C25.4017333,45.3256667 25.5333333,44.6285 25.5333333,43.9 C25.5333333,41.9784833 24.6622667,40.2582833 23.2969167,39.10835 L25.5497833,35.6287833 L32.3420667,47.0584 C31.7702333,47.5675667 31.2916167,48.177 30.9367667,48.8624167 L25.1722167,45.9766167 Z M36.5,23.5333333 C37.9460333,23.5333333 39.2745667,23.0367 40.3367667,22.2110667 L48.7897167,30.6640167 C48.2829,31.31575 47.9037667,32.0685333 47.6852167,32.8879 L42.7643167,32.2111 C42.7635333,32.1907333 42.7666667,32.1703667 42.7666667,32.15 C42.7666667,28.6947167 39.9552833,25.8833333 36.5,25.8833333 C34.3317333,25.8833333 32.4172667,26.9909667 31.2924,28.66965 L30.3578833,28.2027833 L33.7873167,22.9066667 C34.6090333,23.3038167 35.5271,23.5333333 36.5,23.5333333 Z M37.2833333,45.5207167 L37.2833333,38.3618333 C39.8291667,38.0422333 41.9003,36.192 42.5489,33.7621 L47.4698,34.4389 C47.4698,34.4592667 47.4666667,34.4796333 47.4666667,34.5 C47.4666667,35.9961667 47.9946333,37.36935 48.87275,38.448 L40.64775,47.0482167 C39.7257667,46.2312 38.56565,45.6820833 37.2833333,45.5207167 L37.2833333,45.5207167 Z M36.5,27.45 C39.09205,27.45 41.2,29.55795 41.2,32.15 C41.2,34.74205 39.09205,36.85 36.5,36.85 C33.90795,36.85 31.8,34.74205 31.8,32.15 C31.8,29.55795 33.90795,27.45 36.5,27.45 L36.5,27.45 Z M30.59445,30.0733833 C30.3649333,30.7243333 30.2333333,31.4215 30.2333333,32.15 C30.2333333,35.3397333 32.6303333,37.9748667 35.7166667,38.3626167 L35.7166667,45.5215 C34.9740667,45.6147167 34.2729833,45.8371833 33.6345667,46.1669667 L26.4999667,34.1608167 L29.5009167,29.5266167 L30.59445,30.0733833 Z M36.5,56.4333333 C33.90795,56.4333333 31.8,54.3253833 31.8,51.7333333 C31.8,49.1412833 33.90795,47.0333333 36.5,47.0333333 C39.09205,47.0333333 41.2,49.1412833 41.2,51.7333333 C41.2,54.3253833 39.09205,56.4333333 36.5,56.4333333 Z M53.7333333,29.8 C56.3253833,29.8 58.4333333,31.90795 58.4333333,34.5 C58.4333333,37.09205 56.3253833,39.2 53.7333333,39.2 C51.1412833,39.2 49.0333333,37.09205 49.0333333,34.5 C49.0333333,31.90795 51.1412833,29.8 53.7333333,29.8 Z M36.5,12.5666667 C39.09205,12.5666667 41.2,14.6746167 41.2,17.2666667 C41.2,19.8587167 39.09205,21.9666667 36.5,21.9666667 C33.90795,21.9666667 31.8,19.8587167 31.8,17.2666667 C31.8,14.6746167 33.90795,12.5666667 36.5,12.5666667 Z M30.9289333,20.1234833 C31.3119833,20.8668667 31.8360333,21.5240833 32.46975,22.0583167 L28.9478833,27.4977833 L25.1722167,25.60995 C25.4017333,24.959 25.5333333,24.2618333 25.5333333,23.5333333 C25.5333333,23.0570667 25.4753667,22.5941167 25.3735333,22.1476167 L30.9289333,20.1234833 Z M14.5666667,23.5333333 C14.5666667,20.9412833 16.6746167,18.8333333 19.2666667,18.8333333 C21.8587167,18.8333333 23.9666667,20.9412833 23.9666667,23.5333333 C23.9666667,26.1253833 21.8587167,28.2333333 19.2666667,28.2333333 C16.6746167,28.2333333 14.5666667,26.1253833 14.5666667,23.5333333 Z M23.11675,28.46755 C23.6415833,28.0570833 24.1021833,27.5682833 24.4742667,27.0136833 L28.0909167,28.8216167 L25.6069667,32.6576 L23.11675,28.46755 Z" id="Shape" fill="#FFFFFF" fill-rule="nonzero"></path>
                    </g>
                </g>
            </g>
        </g>
    </g>
</svg>