<?xml version="1.0" encoding="UTF-8"?>
<svg width="39px" height="49px" viewBox="0 0 39 49" version="1.1" xmlns="http://www.w3.org/2000/svg" xmlns:xlink="http://www.w3.org/1999/xlink">
    <!-- Generator: Sketch 57.1 (83088) - https://sketch.com -->
    <title>light-bulb</title>
    <desc>Created with Sketch.</desc>
    <g id="Landing-Page" stroke="none" stroke-width="1" fill="none" fill-rule="evenodd">
        <g transform="translate(-121.000000, -2727.000000)" fill-rule="nonzero" id="Studio">
            <g transform="translate(-3.000000, 2645.000000)">
                <g id="light-bulb" transform="translate(124.000000, 82.000000)">
                    <path d="M28.3154595,12.2884783 C25.9396356,10.0456994 22.8188499,8.88972969 19.5168573,9.00829068 C13.1846825,9.25529276 8.02028553,14.511497 8.00007514,20.7359494 C7.99008438,23.4924926 8.97665534,26.1798752 10.7786574,28.294213 C13.3759564,31.3570388 14.8054776,35.2201513 14.8054776,39.1820647 C14.8054776,39.1820647 14.5336673,41 15.8524509,41 L24.1477006,41 C25.4966853,41 25.1946738,39.1820647 25.1946738,39.1820647 C25.1946738,35.3090721 26.6443291,31.4755998 29.3926339,28.0966114 C31.0939654,25.9921537 32,23.4628524 32,20.7754697 C32,17.5446825 30.6912834,14.5213771 28.3154595,12.2884783 L28.3154595,12.2884783 Z M27.7517047,26.8122006 C24.7617906,30.4875915 23.1611296,34.6767468 23.1007273,38.9449427 L16.8994241,38.9449427 C16.8390218,34.587826 15.2484278,30.3492703 12.3893855,26.980162 C10.909529,25.2313873 10.094098,23.0182486 10.1040729,20.7458295 C10.1242991,15.6081862 14.3826615,11.2708297 19.6074607,11.063348 C22.3356314,10.9645472 24.9127964,11.9229152 26.8658042,13.7704908 C28.8288791,15.6180663 29.9060535,18.1078473 29.9060535,20.7754697 C29.8959864,22.9984885 29.1610917,25.083186 27.7517047,26.8122006 L27.7517047,26.8122006 Z" id="Shape" fill="#0E9316"></path>
                    <path d="M33.6675676,5.33270136 C33.2243243,4.88909955 32.5108108,4.88909955 32.0783784,5.33270136 L29.3324324,8.08086867 C28.8891892,8.52447048 28.8891892,9.2385612 29.3324324,9.67134345 C29.7756757,10.1041257 30.4891892,10.1149453 30.9216216,9.67134345 L33.6675676,6.92317614 C34.1108108,6.49039389 34.1108108,5.77630317 33.6675676,5.33270136 Z" id="Path" fill="#009409"></path>
                    <path d="M23.9,43 L15.1,43 C14.4865385,43 14,43.4519231 14,44 C14,44.5576923 14.4971154,45 15.1,45 L23.9,45 C24.5134615,45 25,44.5480769 25,44 C25,43.4519231 24.5028846,43 23.9,43 Z" id="Path" fill="#009409"></path>
                    <path d="M21.9958621,47 L17.0041379,47 C16.4441379,47 16,47.4519231 16,48 C16,48.5576923 16.4537931,49 17.0041379,49 L21.9958621,49 C22.5558621,49 23,48.5480769 23,48 C23,47.4519231 22.5462069,47 21.9958621,47 Z" id="Path" fill="#009409"></path>
                    <path d="M20,6 C20.5576923,6 21,5.5026455 21,4.8994709 L21,1.1005291 C21,0.486772487 20.5480769,0 20,0 C19.4519231,0 19,0.497354497 19,1.1005291 L19,4.8994709 C19,5.51322751 19.4423077,6 20,6 Z" id="Path" fill="#009409"></path>
                    <path d="M9.66729864,9.67514889 C10.1109005,9.23118571 10.1109005,8.51651326 9.66729864,8.08337845 L6.91913133,5.33297239 C6.47552952,4.8890092 5.7614388,4.8890092 5.32865655,5.33297239 C4.89587429,5.77693557 4.88505474,6.49160801 5.32865655,6.92474283 L8.07682386,9.67514889 C8.52042567,10.1082837 9.23451639,10.1082837 9.66729864,9.67514889 L9.66729864,9.67514889 Z" id="Path" fill="#009409"></path>
                    <path d="M37.8994709,19 L34.1005291,19 C33.4867725,19 33,19.4519231 33,20 C33,20.5480769 33.4973545,21 34.1005291,21 L37.8994709,21 C38.5132275,21 39,20.5480769 39,20 C39,19.4519231 38.5026455,19 37.8994709,19 Z" id="Path" fill="#009409"></path>
                    <path d="M4.8994709,19 L1.1005291,19 C0.486772487,19 0,19.4519231 0,20 C0,20.5480769 0.497354497,21 1.1005291,21 L4.8994709,21 C5.51322751,21 6,20.5480769 6,20 C6,19.4519231 5.51322751,19 4.8994709,19 L4.8994709,19 Z" id="Path" fill="#009409"></path>
                </g>
            </g>
        </g>
    </g>
</svg>