<?xml version="1.0" encoding="UTF-8"?>
<svg width="58px" height="73px" viewBox="0 0 58 73" version="1.1" xmlns="http://www.w3.org/2000/svg" xmlns:xlink="http://www.w3.org/1999/xlink">
    <!-- Generator: Sketch 59.1 (86144) - https://sketch.com -->
    <title>web</title>
    <desc>Created with Sketch.</desc>
    <g id="Landing-Page" stroke="none" stroke-width="1" fill="none" fill-rule="evenodd">
        <g transform="translate(-121.000000, -1221.000000)" fill="#000000" fill-rule="nonzero" id="Academy">
            <g transform="translate(119.000000, 1082.000000)">
                <g id="web" transform="translate(2.000000, 139.000000)">
                    <path d="M51.9583333,0 L6.04166667,0 C2.70666667,0.00398863636 0.00392708333,2.74909091 0,6.13636364 L0,39.2727273 C0.00392708333,42.66 2.70666667,45.4051023 6.04166667,45.4090909 L22.5644167,45.4090909 L20.8389167,51.5454545 L16.9166667,51.5454545 L16.9166667,54 L41.0833333,54 L41.0833333,51.5454545 L37.1610833,51.5454545 L35.4355833,45.4090909 L51.9583333,45.4090909 C55.2933333,45.4051023 57.9960729,42.66 58,39.2727273 L58,6.13636364 C57.9960729,2.74909091 55.2933333,0.00398863636 51.9583333,0 Z M23.35225,51.5454545 L25.07775,45.4090909 L32.92225,45.4090909 L34.64775,51.5454545 L23.35225,51.5454545 Z M55.5833333,39.2727273 C55.5833333,41.3061648 53.9603906,42.9545455 51.9583333,42.9545455 L6.04166667,42.9545455 C4.03960938,42.9545455 2.41666667,41.3061648 2.41666667,39.2727273 L2.41666667,36.8181818 L55.5833333,36.8181818 L55.5833333,39.2727273 Z M55.5833333,34.3636364 L2.41666667,34.3636364 L2.41666667,6.13636364 C2.41666667,4.10292614 4.03960938,2.45454545 6.04166667,2.45454545 L51.9583333,2.45454545 C53.9603906,2.45454545 55.5833333,4.10292614 55.5833333,6.13636364 L55.5833333,34.3636364 Z" id="Shape"></path>
                    <path d="M38.8,56 L5.2,56 C4.5373,56 4,56.5436964 4,57.2142857 L4,71.7857143 C4,72.4563036 4.5373,73 5.2,73 L38.8,73 C39.4627,73 40,72.4563036 40,71.7857143 L40,57.2142857 C40,56.5436964 39.4627,56 38.8,56 Z M37.6,70.5714286 L6.4,70.5714286 L6.4,58.4285714 L37.6,58.4285714 L37.6,70.5714286 Z" id="Shape"></path>
                    <rect id="Rectangle" x="9" y="66" width="3" height="3"></rect>
                    <rect id="Rectangle" x="9" y="61" width="3" height="3"></rect>
                    <rect id="Rectangle" x="14" y="61" width="3" height="3"></rect>
                    <rect id="Rectangle" x="18" y="61" width="3" height="3"></rect>
                    <rect id="Rectangle" x="28" y="61" width="3" height="3"></rect>
                    <rect id="Rectangle" x="23" y="61" width="3" height="3"></rect>
                    <rect id="Rectangle" x="32" y="66" width="3" height="3"></rect>
                    <rect id="Rectangle" x="32" y="61" width="3" height="3"></rect>
                    <rect id="Rectangle" x="13" y="66" width="17" height="3"></rect>
                    <path d="M48,56 C44.68635,56 42,58.7183304 42,62.0714286 L42,66.9285714 C42,70.2816696 44.68635,73 48,73 C51.31365,73 54,70.2816696 54,66.9285714 L54,62.0714286 C54,58.7183304 51.31365,56 48,56 Z M51.6,66.9285714 C51.6,68.9404911 49.98825,70.5714286 48,70.5714286 C46.01175,70.5714286 44.4,68.9404911 44.4,66.9285714 L44.4,62.0714286 C44.4,60.0595089 46.01175,58.4285714 48,58.4285714 C49.98825,58.4285714 51.6,60.0595089 51.6,62.0714286 L51.6,66.9285714 Z" id="Shape"></path>
                    <rect id="Rectangle" x="47" y="61" width="3" height="3"></rect>
                    <polygon id="Rectangle" transform="translate(28.991838, 19.487369) rotate(-74.031780) translate(-28.991838, -19.487369) " points="20.1452326 18.2949903 37.8428505 18.2629132 37.8384443 20.6797472 20.1408264 20.7118242"></polygon>
                    <path d="M23,13.8640777 L21.3245091,12 L13.4706455,18.0679612 C12.9154756,18.4972694 12.8407002,19.2624393 13.3037509,19.7773058 C13.3543102,19.8334345 13.4101053,19.8853155 13.4706455,19.9320388 L21.3245091,26 L23,24.1359223 L16.3530135,19 L23,13.8640777 Z" id="Path"></path>
                    <path d="M44.6962491,18.2226942 C44.6456898,18.1665655 44.5898947,18.1146845 44.5293545,18.0679612 L36.6754909,12 L35,13.8640777 L41.6469865,19 L35,24.1359223 L36.6754909,26 L44.5293545,19.9320388 C45.0845244,19.5027306 45.1592998,18.7375607 44.6962491,18.2226942 Z" id="Path"></path>
                </g>
            </g>
        </g>
    </g>
</svg>