<?xml version="1.0" encoding="UTF-8"?>
<svg width="78px" height="73px" viewBox="0 0 78 73" version="1.1" xmlns="http://www.w3.org/2000/svg" xmlns:xlink="http://www.w3.org/1999/xlink">
    <!-- Generator: Sketch 59.1 (86144) - https://sketch.com -->
    <title>perform-high-tech-job-icon</title>
    <desc>Created with Sketch.</desc>
    <g id="Landing-Page" stroke="none" stroke-width="1" fill="none" fill-rule="evenodd">
        <g transform="translate(-750.000000, -1221.000000)" fill="#000000" fill-rule="nonzero" id="Academy">
            <g transform="translate(119.000000, 1082.000000)">
                <g id="perform-high-tech-job-icon" transform="translate(631.000000, 139.000000)">
                    <path d="M78,53.484371 L78,29.9676201 C78,27.1310222 75.6988477,24.8233643 72.8705859,24.8233643 L40.7423555,24.8233643 L40.7423555,24.2191014 C40.7423555,23.4256912 40.4625,22.6972145 39.9973945,22.1259531 C40.3424531,21.7024343 40.5831563,21.1951896 40.6861406,20.6454708 C41.9934023,19.8725337 42.8267227,18.4568321 42.8267227,16.9027076 C42.8267227,16.1687307 42.6382734,15.4514072 42.2851406,14.8123094 C42.6381211,14.1732116 42.8267227,13.456041 42.8267227,12.7219112 C42.8267227,11.1742037 41.9999531,9.77103037 40.7179805,8.99763498 C40.7342813,8.8460727 40.7423555,8.69389929 40.7423555,8.54111474 C40.7423555,6.33964215 39.1070977,4.51386677 36.9907383,4.22158992 C36.2180508,2.9194072 34.8114609,2.09039822 33.2679141,2.09039822 C33.0697148,2.09039822 32.8695352,2.10567668 32.6690508,2.13623359 C31.8069375,1.43617478 30.7300195,1.04519911 29.6203477,1.04519911 C29.4721172,1.04519911 29.323582,1.05268555 29.1730664,1.06765844 C28.246207,0.375391641 27.1305938,0 25.9729336,0 C24.8152734,0 23.6996602,0.375391641 22.7726484,1.06765844 C22.6219805,1.05268555 22.4734453,1.04519911 22.3253672,1.04519911 C21.2128008,1.04519911 20.1530977,1.42059075 19.2925078,2.11178806 C17.9197383,2.24914137 16.6979414,3.04071813 15.9973125,4.22174271 C13.8809531,4.51386677 12.2456953,6.33964215 12.2456953,8.54111474 C12.2456953,8.69374651 12.2537695,8.8460727 12.2700703,8.99763498 C10.98825,9.77103037 10.1613281,11.1742037 10.1613281,12.7219112 C10.1613281,13.456041 10.3497773,14.1732116 10.7029102,14.8123094 C10.3497773,15.4514072 10.1613281,16.1687307 10.1613281,16.9027076 C10.1613281,18.4568321 10.9944961,19.8725337 12.3020625,20.6454708 C12.3594961,20.9522622 12.4611094,21.2453029 12.5985234,21.5184817 C11.7557578,22.1199945 11.2035117,23.1049965 11.2035117,24.2189486 L11.2035117,26.3093469 C11.2035117,28.1372612 12.6862734,29.6246188 14.5092188,29.6246188 L15.0520195,29.6246188 L15.1408359,30.1810602 C15.3466523,31.4714785 16.0113281,32.6430304 17.0125313,33.4798314 L17.4567656,33.8510979 L17.4567656,37.3078483 C17.4567656,37.6901153 17.2117969,38.0227272 16.8473906,38.1350239 L7.71285937,40.953746 C5.43714844,41.6560966 3.90807422,43.7322859 3.90807422,46.1203084 L3.90807422,61.3232879 C3.90807422,62.8338688 4.43000391,64.2239026 5.30049609,65.3244097 L2.52403125,65.3244097 C1.13221875,65.3244097 0,66.4599045 0,67.8557442 L0,70.4686656 C0,71.8645052 1.13221875,73 2.52403125,73 L75.4759687,73 C76.8677812,73 78,71.8645052 78,70.4686656 L78,67.8557442 C78,66.4599045 76.8677812,65.3244097 75.4759687,65.3244097 L62.2153594,65.3244097 L61.3250625,58.6286268 L72.8705859,58.6286268 C75.6988477,58.6286268 78,56.3209689 78,53.484371 Z M14.5089141,27.1750241 C14.0331445,27.1750241 13.6458867,26.7867986 13.6458867,26.3094996 L13.6458867,24.2191014 C13.6458867,23.9028374 13.8177305,23.6285891 14.0709258,23.4774852 L14.6609531,27.1750241 L14.5089141,27.1750241 Z M14.6891367,20.0746677 C14.6940117,20.037541 14.698582,20.0005672 14.7019336,19.9629822 C14.7526641,19.4031796 14.4167461,18.8805036 13.8875039,18.6954816 C13.1196914,18.4271919 12.6037031,17.7068127 12.6037031,16.9028604 C12.6037031,16.3105147 12.874418,15.8850097 13.1012578,15.6323041 C13.5195938,15.1663112 13.5195938,14.4586132 13.1011055,13.9926203 C12.8741133,13.7399146 12.6037031,13.3144097 12.6037031,12.722064 C12.6037031,11.8686095 13.1838281,11.1150761 14.0147109,10.8895661 C14.3513906,10.7980481 14.6332266,10.5667323 14.7886172,10.253524 C14.9443125,9.94046844 14.9589375,9.57546615 14.8289883,9.25079898 C14.7352969,9.01749697 14.687918,8.77869472 14.687918,8.54142031 C14.687918,7.50279093 15.5184961,6.65498946 16.5486445,6.63115507 C16.6005938,6.63818316 16.6528477,6.64398897 16.7060156,6.64719745 C17.2529297,6.67867107 17.7523125,6.34514239 17.9320781,5.82750834 C18.1951758,5.07000253 18.8944336,4.55725758 19.6802227,4.54060406 C19.7038359,4.54228469 19.7276016,4.54335419 19.7515195,4.54365976 C20.0816484,4.54763215 20.3945625,4.42326553 20.6282578,4.19332478 C21.0862031,3.74291592 21.688875,3.49479381 22.3250625,3.49479381 C22.4897461,3.49479381 22.664332,3.51618365 22.8587227,3.56003282 C23.2534453,3.64910621 23.6673633,3.53619843 23.9627578,3.25813054 C24.5165273,2.73698244 25.2302578,2.44990027 25.9727813,2.44990027 C26.7153047,2.44990027 27.4290352,2.73698244 27.9826523,3.25828333 C28.2778945,3.53635121 28.6916602,3.64941178 29.0866875,3.5601856 C29.2810781,3.51618365 29.4556641,3.4949466 29.6203477,3.4949466 C30.3023906,3.4949466 30.9375117,3.78187598 31.4087109,4.30271852 C31.7350313,4.66344284 32.2434023,4.79590705 32.7034805,4.64037238 C32.9030508,4.57299439 33.0878438,4.54014571 33.2680664,4.54014571 C34.0696992,4.54014571 34.7881523,5.0574742 35.055668,5.82735555 C35.2354336,6.34483682 35.7352734,6.67974056 36.2817305,6.64704467 C36.3315469,6.64414176 36.3806016,6.63864152 36.4387969,6.63100229 C37.4689453,6.65468389 38.2996758,7.50263815 38.2996758,8.54126753 C38.2996758,8.77854193 38.2522969,9.01734419 38.1587578,9.25049341 C38.0286563,9.57516058 38.0432813,9.94016287 38.1989766,10.2533712 C38.3546719,10.5665795 38.6363555,10.7980481 38.9731875,10.8894133 C39.8037656,11.1149233 40.384043,11.8684567 40.384043,12.7219112 C40.384043,13.3142569 40.1134805,13.7397619 39.8866406,13.9924675 C39.4681523,14.4583076 39.4681523,15.1661584 39.8866406,15.6321513 C40.1136328,15.884857 40.384043,16.3103619 40.384043,16.9027076 C40.384043,17.7066599 39.868207,18.4271919 39.1003945,18.6953288 C38.5711523,18.8803509 38.2352344,19.4030268 38.2859648,19.9628294 C38.2893164,20.0004144 38.2938867,20.0376938 38.2990664,20.0748205 C38.282918,20.4466981 38.0233242,20.7692263 37.6566328,20.8670084 C37.6174805,20.8773977 36.4494609,20.9038295 36.4494609,20.9038295 L35.7471563,16.6778088 C35.6432578,16.0527672 35.0798906,15.6104559 34.4513203,15.6578191 C34.3946484,15.6620971 34.3391953,15.6689724 34.2834375,15.6766116 L34.2762773,15.6775283 C33.6504492,15.6663751 33.071543,15.3475137 32.7225234,14.8194903 C32.4961406,14.4774057 32.1142148,14.2716049 31.7047148,14.2716049 C31.2953672,14.2716049 30.9131367,14.4774057 30.6869063,14.8193375 C30.3314883,15.3568336 29.7381094,15.6776811 29.0991797,15.6776811 C28.4604023,15.6776811 27.8670234,15.3568336 27.5114531,14.8193375 C27.2850703,14.4772529 26.9031445,14.2714521 26.4936445,14.2714521 C26.0842969,14.2714521 25.7020664,14.4772529 25.4758359,14.8191847 C25.120418,15.3566808 24.5270391,15.6775283 23.8881094,15.6775283 C23.249332,15.6775283 22.6559531,15.3566808 22.3003828,14.8191847 C22.074,14.4771001 21.6920742,14.2712993 21.2825742,14.2712993 C20.8732266,14.2712993 20.4909961,14.4771001 20.2647656,14.8190319 C19.9155938,15.3470553 19.3366875,15.6659167 18.7110117,15.67707 L18.7038516,15.6761533 C18.6483984,15.668514 18.5924883,15.6616387 18.5358164,15.6573608 C17.9073984,15.6092336 17.3440313,16.0524616 17.2401328,16.6773504 L16.5379805,20.9038295 C16.5379805,20.9038295 15.3701133,20.8775505 15.3309609,20.8671612 C14.9645742,20.769379 14.7048281,20.4465453 14.6891367,20.0746677 Z M38.2998281,24.2191014 L38.2998281,24.8233643 L37.6599844,24.8233643 L37.8747891,23.4774852 C38.1279844,23.6285891 38.2998281,23.9028374 38.2998281,24.2191014 Z M16.5247266,23.3535769 L16.6900195,23.3535769 C17.8009102,23.3535769 18.7398047,22.555736 18.9227695,21.4567567 L19.4885742,18.0513419 C20.1424336,17.9272808 20.7551602,17.6542548 21.2830313,17.2568622 C22.0244883,17.8152898 22.9338281,18.1275814 23.8884141,18.1275814 C24.8428477,18.1275814 25.7523398,17.815137 26.4937969,17.2568622 C27.2352539,17.8152898 28.1445938,18.1275814 29.0991797,18.1275814 C30.0536133,18.1275814 30.9631055,17.815137 31.7045625,17.2568622 C32.2322813,17.6544076 32.8451602,17.927128 33.4990195,18.0513419 L34.0648242,21.4569095 C34.198125,22.2590284 34.7352891,22.8988901 35.4471914,23.1870418 L35.1862266,24.8233643 L33.7889297,24.8233643 C30.9605156,24.8233643 28.6595156,27.131175 28.6595156,29.9676201 L28.6595156,35.4036945 C28.4396836,35.4897122 28.2047695,35.5364642 27.9672656,35.5364642 L23.9781445,35.5364642 C23.5333008,35.5364642 23.1001875,35.3792489 22.7584805,35.0935418 L18.5755781,31.5976785 C18.0280547,31.1400888 17.6647148,30.4996159 17.5521328,29.7939041 L16.5247266,23.3535769 Z M17.5655391,40.4764471 C18.9614648,40.0457475 19.8991406,38.7722882 19.8991406,37.3078483 L19.8991406,35.8924522 L21.1949766,36.9755419 C21.9748242,37.6273208 22.9632305,37.9862117 23.9784492,37.9862117 L27.9675703,37.9862117 C28.1998945,37.9862117 28.431457,37.9663497 28.6598203,37.9290703 L28.6598203,45.8103086 C27.9431953,45.9276471 27.2146875,45.9884553 26.4834375,45.9884553 C22.4093086,45.9884553 18.5671992,44.1189836 16.0375313,40.948093 L17.5655391,40.4764471 Z M6.35075391,46.1201556 C6.35075391,44.8143061 7.18696875,43.6789641 8.4313125,43.2948637 L13.5572227,41.713238 C16.5210703,45.9253553 21.3461016,48.4378973 26.4834375,48.4378973 C27.2130117,48.4378973 27.9404531,48.3864089 28.6598203,48.2869461 L28.6598203,53.484371 C28.6598203,56.3209689 30.9608203,58.6286268 33.7892344,58.6286268 L39.0815039,58.6286268 L39.0815039,65.24267 C39.0815039,65.270324 39.0837891,65.2972141 39.0856172,65.324257 L32.4050391,65.324257 L32.4050391,63.9360565 C32.4050391,61.0994586 30.1038867,58.7918007 27.275625,58.7918007 L14.2484063,58.7918007 C14.2034648,58.7918007 14.1670547,58.7552852 14.1670547,58.7102138 L14.1670547,50.8712968 C14.1670547,50.1949196 13.620293,49.6464231 12.9457148,49.6464231 C12.2711367,49.6464231 11.724375,50.1947668 11.724375,50.8712968 L11.724375,58.7102138 C11.724375,60.1060534 12.8565938,61.2415482 14.2484063,61.2415482 L22.1460586,61.2415482 L22.1460586,65.324257 L10.340332,65.324257 C8.14048828,65.324257 6.35075391,63.5293441 6.35075391,61.3231351 L6.35075391,46.1201556 Z M29.9623594,63.9362093 L29.9623594,65.3244097 L24.5887383,65.3244097 L24.5887383,61.241701 L27.275625,61.241701 C28.7570156,61.2415482 29.9623594,62.4503796 29.9623594,63.9362093 Z M75.4759688,67.7740044 C75.5209102,67.7740044 75.5573203,67.8105199 75.5573203,67.8555914 L75.5573203,70.4685128 C75.5573203,70.5135842 75.5209102,70.5500997 75.4759688,70.5500997 L2.52403125,70.5500997 C2.47908984,70.5500997 2.44267969,70.5135842 2.44267969,70.4685128 L2.44267969,67.8555914 C2.44267969,67.8105199 2.47908984,67.7740044 2.52403125,67.7740044 L75.4759688,67.7740044 Z M41.519918,65.3244097 C41.5217461,65.2973669 41.5240313,65.270324 41.5240313,65.2428228 L41.5240313,58.6287796 L45.3344531,58.6287796 L44.4441563,65.3245625 L41.519918,65.3245625 L41.519918,65.3244097 Z M46.9084688,65.3244097 L49.0280273,49.3814947 C49.1194336,48.6945753 49.7091563,48.1767885 50.4001875,48.1767885 L56.2596328,48.1767885 C56.9505117,48.1767885 57.5403867,48.6945753 57.6316406,49.3814947 L59.7513516,65.3244097 L46.9084688,65.3244097 Z M61.1462109,56.1790321 C61.0968516,56.1790321 61.0487109,56.1828517 61.0007227,56.1885047 L60.0526875,49.0577442 C59.8002539,47.1590906 58.1695664,45.7271938 56.2596328,45.7271938 L50.4001875,45.7271938 C48.4902539,45.7271938 46.8594141,47.1590906 46.6069805,49.0577442 L45.6589453,56.1885047 C45.6112617,56.1828517 45.5628164,56.1790321 45.513457,56.1790321 L33.789082,56.1790321 C32.3075391,56.1790321 31.1021953,54.9702007 31.1021953,53.484371 L31.1021953,29.9676201 C31.1021953,28.4817904 32.3075391,27.272959 33.789082,27.272959 L72.8705859,27.272959 C74.3521289,27.272959 75.5574727,28.4817904 75.5574727,29.9676201 L75.5574727,53.484371 C75.5574727,54.9702007 74.3521289,56.1790321 72.8705859,56.1790321 L61.1462109,56.1790321 L61.1462109,56.1790321 Z" id="Shape"></path>
                    <path d="M53,35 C50.7943389,35 49,36.7943389 49,39 C49,41.2056611 50.7943389,43 53,43 C55.2056611,43 57,41.2056611 57,39 C57,36.7944982 55.2055018,35 53,35 Z M53,40.4468729 C52.2021975,40.4468729 51.5531271,39.7978025 51.5531271,39 C51.5531271,38.2021975 52.2021975,37.5531271 53,37.5531271 C53.7978025,37.5531271 54.4468729,38.2021975 54.4468729,39 C54.4467136,39.7978025 53.7978025,40.4468729 53,40.4468729 Z" id="Shape"></path>
                </g>
            </g>
        </g>
    </g>
</svg>