<?xml version="1.0" encoding="UTF-8"?>
<svg width="1440px" height="680px" viewBox="0 0 1440 680" version="1.1" xmlns="http://www.w3.org/2000/svg" xmlns:xlink="http://www.w3.org/1999/xlink">
    <!-- Generator: Sketch 58 (84663) - https://sketch.com -->
    <title>Path 5</title>
    <desc>Created with Sketch.</desc>
    <g id="Landing-Page" stroke="none" stroke-width="1" fill="none" fill-rule="evenodd" fill-opacity="0.2">
        <g transform="translate(0.000000, -1842.000000)" fill="#00C8C8" id="Updates">
            <g transform="translate(-192.000000, 1726.000000)">
                <path d="M21,288 C138,171.666667 259.666667,136.5 386,182.5 C575.5,251.5 701.5,133 924,117.5 C1146.5,102 1311,234 1586.5,234 C1862,234 1944.5,755 1696.5,732.5 C1448.5,710 1324.5,834 1167,784 C1009.5,734 885,575.5 759,638.5 C633,701.5 514.295103,767.354192 336,784 C157.704897,800.645808 177,690.5 99,732.5 C47,760.5 21,612.333333 21,288 Z" id="Path-5"></path>
            </g>
        </g>
    </g>
</svg>