<?xml version="1.0" encoding="UTF-8"?>
<svg width="1440px" height="787px" viewBox="0 0 1440 787" version="1.1" xmlns="http://www.w3.org/2000/svg" xmlns:xlink="http://www.w3.org/1999/xlink">
    <!-- Generator: Sketch 58 (84663) - https://sketch.com -->
    <title>Path 5</title>
    <desc>Created with Sketch.</desc>
    <g id="Landing-Page" stroke="none" stroke-width="1" fill="none" fill-rule="evenodd" fill-opacity="0.2">
        <g transform="translate(0.000000, -1796.000000)" fill="#008893" id="Updates">
            <g transform="translate(-192.000000, 1726.000000)">
                <path d="M0.795516086,260.888261 C65.1793117,97.9627536 162.615751,39.5 293.104834,85.5 C488.838459,154.5 690.769454,247.5 950.542576,225.5 C1210.3157,203.5 1279.00322,193.5 1561.50004,163.5 C1843.99685,133.5 1980.33901,892.5 1724.18102,870 C1647.43453,863.258864 1583.8538,848.214577 1528.0637,829.102909 C1397.64226,784.425254 1309.79594,717.519697 1195.85517,682.5 C1033.17419,632.5 903.029401,659.5 772.884616,722.5 C642.739831,785.5 510.317619,740.242452 326.157478,756.888261 C141.997337,773.534069 161.927154,663.388261 81.3613352,705.388261 C27.6507891,733.388261 0.795516086,585.221594 0.795516086,260.888261 Z" id="Path-5"></path>
            </g>
        </g>
    </g>
</svg>